<?xml version="1.0" encoding="iso-8859-1"?>
<!-- Generator: Adobe Illustrator 19.0.0, SVG Export Plug-In . SVG Version: 6.00 Build 0)  -->
<svg version="1.1" id="Capa_1" xmlns="http://www.w3.org/2000/svg" xmlns:xlink="http://www.w3.org/1999/xlink" x="0px" y="0px"
	 viewBox="0 0 512 512" style="enable-background:new 0 0 512 512;" xml:space="preserve">
<g>
	<g>
		<rect x="457" y="214.25" width="50" height="168.5"/>
	</g>
</g>
<g>
	<g>
		<circle cx="482" cy="159.25" r="30"/>
	</g>
</g>
<g>
	<g>
		<rect x="366" y="214.25" width="50" height="168.5"/>
	</g>
</g>
<g>
	<g>
		<circle cx="391" cy="159.25" r="30"/>
	</g>
</g>
<g>
	<g>
		<path d="M289.221,129.248l-39.959,194.131l-32.483-156.088c-4.511-22.043-24.128-38.043-46.645-38.043
			c-22.517,0-42.134,16-46.628,37.961l-32.5,156.17L51.048,129.247H0L44.348,344.71c4.511,22.043,24.128,38.043,46.645,38.043
			c22.516,0,42.133-15.999,46.628-37.961l32.513-156.232l32.496,156.15c4.511,22.043,24.128,38.043,46.645,38.043
			c22.518,0,42.134-16,46.639-38.015l44.354-215.49H289.221z"/>
	</g>
</g>
<g>
</g>
<g>
</g>
<g>
</g>
<g>
</g>
<g>
</g>
<g>
</g>
<g>
</g>
<g>
</g>
<g>
</g>
<g>
</g>
<g>
</g>
<g>
</g>
<g>
</g>
<g>
</g>
<g>
</g>
</svg>
